<?xml version="1.0" encoding="utf-8"?>
<!-- Generator: Adobe Illustrator 21.0.0, SVG Export Plug-In . SVG Version: 6.00 Build 0)  -->
<svg version="1.1" id="Laag_1" xmlns="http://www.w3.org/2000/svg" xmlns:xlink="http://www.w3.org/1999/xlink" x="0px" y="0px"
	 viewBox="0 0 80 50" style="enable-background:new 0 0 80 50;" xml:space="preserve">
<g>
	<g>
		<g>
			<path d="M5,14c0.7,6.8,1.2,13.6,1.3,20.5C6.3,35,7,35,7,34.5C7,27.6,6.5,20.8,5.8,14C5.7,13.5,5,13.5,5,14L5,14z"/>
		</g>
	</g>
	<g>
		<g>
			<path d="M6.7,35.1c14.7,0,29.3,0,44-1c0.5,0,0.5-0.8,0-0.8c-14.6,1-29.3,1-44,1C6.2,34.4,6.2,35.1,6.7,35.1L6.7,35.1z"/>
		</g>
	</g>
	<g>
		<g>
			<path d="M6.3,13.1c6.7,1.5,13.5,1,20.2,0.7c8.2-0.4,16.4,0.1,24.6,0.1c0.5,0,0.5-0.7,0-0.8c-7.1,0-14.2-0.3-21.3-0.2
				C22,13,14.3,14.2,6.5,12.4C6.1,12.3,5.9,13,6.3,13.1L6.3,13.1z"/>
		</g>
	</g>
	<g>
		<g>
			<path d="M53,13.3c-0.4-3.4-0.2-6.8,0.5-10.1c0.1-0.5-0.6-0.7-0.7-0.2c-0.7,3.4-1,6.9-0.5,10.3C52.3,13.7,53.1,13.7,53,13.3
				L53,13.3z"/>
		</g>
	</g>
	<g>
		<g>
			<path d="M51.3,33.8c0,3,0,6,0,9c0,0.5,0.8,0.5,0.8,0c0-2.6,0-5.2,0-7.7c-0.3,0-0.5,0-0.8,0c0.2,3,0.2,6,0.2,9
				c0,0.5,0.8,0.5,0.8,0c0-3,0-6-0.2-9c0-0.5-0.8-0.5-0.8,0c0,2.6,0,5.2,0,7.7c0,0.5,0.8,0.5,0.8,0c0-3,0-6,0-9
				C52,33.3,51.3,33.3,51.3,33.8L51.3,33.8z"/>
		</g>
	</g>
	<g>
		<g>
			<path d="M53.5,10.6c-1.2-2.5-0.4-6.1-0.2-8.8c-0.3,0-0.5,0-0.8,0c0,2.7,0,5.5,0,8.2c0,0.5,0.8,0.5,0.8,0c0-2.7,0-5.5,0-8.2
				c0-0.5-0.7-0.5-0.8,0c-0.3,2.8-1,6.5,0.3,9.2C53,11.4,53.7,11,53.5,10.6L53.5,10.6z"/>
		</g>
	</g>
	<g>
		<g>
			<path d="M50.5,35.5c0.2,3,0.2,6,0.2,9c0,0.5,0.8,0.5,0.8,0c0-2.4,0-4.8,0.3-7.2c-0.2,0-0.5,0.1-0.7,0.1c0.2,1.6,0.3,3.2,0.8,4.7
				c0.1,0.5,0.9,0.3,0.7-0.2c-0.4-1.6-0.5-3.2-0.8-4.7c-0.1-0.5-0.7-0.3-0.7,0.1c-0.2,2.4-0.2,4.8-0.3,7.2c0.3,0,0.5,0,0.8,0
				c0-3,0-6-0.2-9C51.2,35,50.5,35,50.5,35.5L50.5,35.5z"/>
		</g>
	</g>
	<g>
		<g>
			<path d="M51.3,2.4c0.2,1.4,0.5,2.8,0.7,4.2c0.1,0.4,0.7,0.4,0.7,0C53,5.1,53,3.6,53,2c-0.3,0-0.5,0-0.8,0c0,1.9,0,3.8,0,5.7
				c0,0.5,0.8,0.5,0.8,0c0-1.9,0-3.8,0-5.7c0-0.5-0.8-0.5-0.8,0c0,1.5,0,2.9-0.2,4.4c0.2,0,0.5,0,0.7,0C52.5,5,52.3,3.6,52,2.2
				C51.9,1.7,51.2,1.9,51.3,2.4L51.3,2.4z"/>
		</g>
	</g>
	<g>
		<g>
			<path d="M5.5,16.3c0,3.4,0,6.8,0,10.2c0,0.5,0.8,0.5,0.8,0c0-1.9,0-3.9,0-5.8c0-0.9,0-1.9,0-2.8c0-2-0.8-1.9-0.7,0
				c0.1,4.3,0.3,8.6,0.7,12.9c0,0.5,0.8,0.5,0.8,0c0-3.8,0-7.7,0-11.5c0-0.5-0.8-0.5-0.8,0c0,3,0,6,0,9c0,0.5,0.8,0.5,0.8,0
				c0-3.8,0-7.7,0-11.5c0-0.5-0.7-0.5-0.8,0c0,3.3-0.4,6.5-0.8,9.7c-0.2,1.4-0.4,2.8-0.7,4.2C4.1,31.7,4.2,32.2,5,32c0-1,0-2,0-3
				c0-2.2,0.3-5.6-0.1-7.2C5.9,25.4,5.7,29.3,6,33c0,0.5,0.7,0.5,0.8,0c0.5-4,0.7-7.9,0-11.8c-0.1-0.4-0.6-0.3-0.7,0
				c-0.9,3.2-1,6.5-1.3,9.8c0,0.5,0.7,0.5,0.8,0c0.2-3,0.2-6,0.3-9c0-0.5-0.7-0.5-0.8,0c-0.2,2-0.4,4-0.6,6c-0.1,1-0.2,2-0.3,3
				c-0.2,2,0.5,2.2,0.5,0.1C4.9,26.9,5,22.7,5,18.5c0-0.5-0.7-0.5-0.8,0C4.1,23,4,27.5,4,32c0,0.5,0.7,0.5,0.8,0
				C5,28.9,5,25.7,5,22.6c-1-0.1-1.2,0.4-0.7,1.5c0,1,0,1.9,0,2.9c0,1.9,0,3.8,0,5.7c0,0.5,0.8,0.5,0.8,0c0-5.8,0-11.5,0.3-17.2
				c0-0.5-0.7-0.5-0.8,0c-0.2,4.3-0.2,8.6-0.2,12.9c0,1,0,1.9,0,2.9c0.3,0,0.5,0,0.8,0c0-1,0-1.9,0-2.9c0-2.4,0-4.8,0-7.2
				c0-0.5-0.8-0.5-0.8,0c0,2.7,0,5.4-0.1,8.1c-0.1,2.4,0.6,1.1,0.6-0.3c0-2,0-4,0.1-6c0-0.5,0-1,0-1.5c0.5-1.1,0.3-1.7-0.6-1.6
				c0,1.4,0,2.8-0.1,4.2C4.1,27.4,4,30.7,3.8,34c0,0.5,0.7,0.5,0.8,0c0.2-2,0.4-4,0.6-6c0.1-1,0.2-2,0.3-3c0.1-1.2-0.4-3-0.4-0.5
				C5,26.2,5,28,4.9,29.7c0.9,0.3,1.2-0.1,0.8-1.2c0.1-1.6,0.2-3.2,0.5-4.8c0.5-3.2,0.3,2.2,0.3,2.8c0,0.9,0,1.8-0.1,2.7
				c0,0.4-0.1,0.9-0.1,1.3c-0.5,1.2-0.4,1.5,0.3,1.1c-0.4-3.9-0.4-7.6-1.4-11.4c-0.1-0.4-0.7-0.3-0.7,0.1c-0.4,4.4-0.3,8.8-0.3,13.2
				C4.3,33.9,5,34,5,33.6c0.8-4.2,1.5-8.4,1.8-12.7C6.9,20,7,19.1,7,18.1c-0.2,0-0.5,0-0.7,0c0,0.9,0,1.9,0,2.8c0,2.4,0,4.8,0,7.3
				c0,0.5,0.8,0.5,0.8,0c0-3,0-6,0-9c0-0.5-0.8-0.5-0.8,0c0,1.9,0,3.8,0,5.7c0,1,0,1.9,0,2.9c0,1.9,0.7,2,0.5,0
				C6.4,23.6,6.3,19.3,6.3,15c0-0.5-0.8-0.5-0.8,0c0,3.8,0,7.7,0,11.5c0,0.5,0.8,0.5,0.8,0c0-3.4,0-6.8,0-10.2
				C6.3,15.8,5.5,15.8,5.5,16.3L5.5,16.3z"/>
		</g>
	</g>
	<g>
		<g>
			<path d="M51.3,1.8c0.2,3.5,0,7,0,10.5c0.2,0,0.5-0.1,0.7-0.1c-0.4-2.5-0.5-5.1-0.5-7.6c0-0.5-0.8-0.5-0.8,0c0,2.7,0,5.5,0,8.2
				c0,0.5,0.7,0.5,0.8,0c0-3.1,0.2-6.2-0.3-9.3c-0.1-0.4-0.7-0.3-0.7,0.1c0,2.7,0,5.3,0,8c0,0.5,0.8,0.5,0.8,0c0-2.4,0-4.8,0-7.2
				c0-0.5-0.8-0.5-0.8,0c0,3.4,0,6.8,0,10.2c0,0.5,0.8,0.5,0.8,0c0-3.4,0-6.8,0-10.2c0-0.5-0.8-0.5-0.8,0c0,2.4,0,4.8,0,7.2
				c0,0.5,0.8,0.5,0.8,0c0-2.7,0-5.3,0-8c-0.2,0-0.5,0.1-0.7,0.1c0.4,3,0.3,6.1,0.2,9.1c0.3,0,0.5,0,0.8,0c0-2.7,0-5.5,0-8.2
				c-0.3,0-0.5,0-0.8,0c0,2.6,0.1,5.2,0.5,7.8c0.1,0.4,0.7,0.3,0.7-0.1c0-3.5,0.2-7,0-10.5C52,1.3,51.3,1.3,51.3,1.8L51.3,1.8z"/>
		</g>
	</g>
	<g>
		<g>
			<path d="M49.5,36.3c0,4.2,0,8.5,0,12.7c0,0.5,0.7,0.5,0.8,0c0-5.1,0.5-10.2,0.5-15.2c0-0.4-0.7-0.5-0.7-0.1
				c-0.7,3.3-0.8,6.7-1,10.1c0.3,0,0.5,0,0.8,0c0-2.8-0.3-5.5-0.5-8.2c0-0.4-0.7-0.5-0.7-0.1c-0.4,2.9-0.5,5.7-0.8,8.6
				c0.3,0,0.5,0,0.8,0c-0.2-3,0-6,0-9c-0.3,0-0.5,0-0.8,0c0,3.2-0.2,6.3,0,9.5c0,0.4,0.6,0.5,0.7,0.1C49,42.4,49,40.2,49,38
				c0-0.5-0.7-0.5-0.8,0c-0.2,2.6-0.1,5.3-0.5,7.9c0.2,0,0.5,0.1,0.7,0.1c0-3.2,0-6.3,0-9.5c0-0.5-0.7-0.5-0.8,0
				c-0.3,3.2-0.5,6.3-0.5,9.5c0.3,0,0.5,0,0.8,0c0-2.7,0-5.5,0-8.2c0-0.5-0.8-0.5-0.8,0c0,3.2,0,6.5,0,9.7c0.3,0,0.5,0,0.8,0
				c0-2.8,0-5.7-0.2-8.5c0-0.5-0.7-0.5-0.8,0c-0.1,1.4-0.2,2.8-0.3,4.2c0,0.5,0.7,0.5,0.8,0c0.2-2.8,0.3-5.7,0.3-8.5
				c-0.2,0-0.5,0.1-0.7,0.1c0.7,3.8,1,7.7,1.7,11.5c0,0.2,0.4,0.4,0.6,0.2c2.8-1.9,1.3-6.3,1.2-9.1c0-0.5-0.8-0.5-0.8,0
				c0,1.1,0.2,2.2,0.3,3.3c0.1,0.5,0.1,1,0.1,1.5c0,0.2,0,0.5,0,0.7c0.1,0.9-0.2,1.6-0.9,2.1c-0.7-3.5-0.9-7-1.6-10.5
				c-0.1-0.4-0.7-0.3-0.7,0.1c0,2.8,0,5.7-0.3,8.5c0.3,0,0.5,0,0.8,0c0.1-1.4,0.2-2.8,0.3-4.2c-0.3,0-0.5,0-0.8,0
				c0.2,2.8,0.2,5.7,0.2,8.5c0,0.5,0.8,0.5,0.8,0c0-3.2,0-6.5,0-9.7c0-0.5-0.8-0.5-0.8,0c0,2.7,0,5.5,0,8.2c0,0.5,0.7,0.5,0.8,0
				c0-3.2,0.2-6.3,0.5-9.5c-0.3,0-0.5,0-0.8,0c0,3.2,0,6.3,0,9.5c0,0.4,0.7,0.5,0.7,0.1c0.4-2.7,0.3-5.4,0.5-8.1c-0.3,0-0.5,0-0.8,0
				c0,2.2,0,4.3-0.5,6.4c0.2,0,0.5,0.1,0.7,0.1c-0.2-3.2,0-6.3,0-9.5c0-0.5-0.7-0.5-0.8,0c0,3-0.2,6,0,9c0,0.5,0.7,0.5,0.8,0
				c0.2-2.8,0.3-5.6,0.7-8.4c-0.2,0-0.5-0.1-0.7-0.1c0.2,2.7,0.5,5.5,0.5,8.2c0,0.5,0.7,0.5,0.8,0c0.2-3.3,0.3-6.6,1-9.9
				c-0.2,0-0.5-0.1-0.7-0.1c0,5.1-0.5,10.2-0.5,15.2c0.3,0,0.5,0,0.8,0c0-4.2,0-8.5,0-12.7C50.3,35.8,49.5,35.8,49.5,36.3L49.5,36.3
				z"/>
		</g>
	</g>
	<g>
		<g>
			<path d="M49.3,4c0,2.9,0.2,5.8,0,8.7c0.2,0,0.5-0.1,0.7-0.1c-0.7-3.2-0.7-6.5-0.3-9.8c-0.2,0-0.5-0.1-0.7-0.1
				c0,3.1,0.2,6.2,0.3,9.2c0,0.5,0.8,0.5,0.8,0c0-3.1-0.2-6.2-0.3-9.2c0-0.4-0.7-0.5-0.7-0.1c-0.5,3.4-0.5,6.8,0.3,10.2
				c0.1,0.4,0.7,0.3,0.7-0.1c0.2-2.9,0-5.8,0-8.7C50,3.5,49.3,3.5,49.3,4L49.3,4z"/>
		</g>
	</g>
	<g>
		<g>
			<path d="M4.5,12.5c0.4,6.3,0.7,12.7,0.7,19c1,0.3,1.3-0.2,0.7-1.6c0-1.6,0-3.3-0.1-4.9c0-3.3,0-6.7,0.1-10c0-0.4-0.7-0.5-0.7-0.1
				c-1,6.4-1.7,12.9-1,19.3c0,0.5,0.7,0.5,0.8,0c0.2-5.1,0.3-10.1,0.8-15.2c-0.3-2.1-0.4-2.1-0.3,0.2c0,1.8-0.1,3.5-0.1,5.3
				c0,2.9,0.1,5.8,0.4,8.7c0.1,0.5,0.8,0.5,0.8,0c-0.3-5.7-1-11.3-1.2-17c0-0.5-0.7-0.5-0.8,0C4.3,18.6,4.1,21,4,23.4
				c-0.1,1.2-0.1,2.3-0.2,3.5c-0.6,1.4-0.5,2,0.6,1.7c0-4.7,0.1-9.3-0.5-14C3.7,14,3.1,14,3,14.5c-0.5,6.6-0.9,13.2,0,19.8
				c0.1,0.4,0.7,0.3,0.7-0.1C4,26.7,3.6,19.1,3.5,11.5c0-0.5-0.8-0.5-0.8,0c0,4.7,0.2,9.3,0.3,14c0,2.3,0,4.7,0,7
				c0-1.9,0.2-3.8,0.1-5.8c0-2.1,0.1-4.1,0.2-6.2c0.1-1,0.1-2,0.2-3C4.1,16,4,15.6,3.3,16.3c0.6,4.6,0.3,9.4,0.3,14
				c0,0.5,0.7,0.5,0.8,0c0.2-3.5,0.4-7,0.7-10.4c0.2-2.2-0.4-2.6-0.2-0.1c0.1,2.3,0.4,4.5,0.6,6.8c0.1,1.7,0.3,3.4,0.4,5.1
				c0.2,0,0.4,0,0.6,0c-0.1-1.2-0.2-2.3-0.2-3.5C6,23.9,6.3,19.8,6.3,15.8c0-0.4-0.7-0.5-0.7-0.1c-0.6,3.9-0.9,7.8-1,11.8
				c0,1.1-0.1,2.3-0.1,3.4C3.8,32,4,32.6,4.9,32.7c-0.2-2.2-0.2-4.3-0.1-6.5c0.1-2.2,0.3-4.3,0.6-6.5c0.7-6.3-0.2-1.6-0.2,0.4
				c0,4.4,0.1,8.8,0.1,13.2c0,0.5,0.8,0.5,0.8,0c0-6.9-0.3-13.8-0.8-20.7C5.3,12,4.5,12,4.5,12.5L4.5,12.5z"/>
		</g>
	</g>
	<g>
		<g>
			<path d="M5.2,13.9c9.2-0.6,18.4-0.9,27.7-1c4.3,0,8.6,0,13,0c0.1-1-0.6-1.2-2-0.5c-1.3,0.1-2.6,0.1-3.8,0.2
				c-2.6,0.1-5.2,0.1-7.7,0.1c-4.5,0-9.1-0.1-13.6-0.2c-2.6-0.1-5.2-0.1-7.7-0.2c-1.5,0-6.8,0.7-1.9,0.7c10.2,0.1,20.4,0.5,30.7,0.7
				c0.5,0,0.5-0.7,0-0.8c-11.5-0.3-23-0.7-34.5-0.8c-0.5,0-0.5,0.7,0,0.8c14.2,0,28.3,0.9,42.5-0.3c0.5,0,0.5-0.8,0-0.8
				c-14.2,0-28.3,0-42.5,1C4.7,13.2,4.7,13.9,5.2,13.9L5.2,13.9z"/>
		</g>
	</g>
	<g>
		<g>
			<path d="M7.5,35.9c14.3-2.1,28.7-1.8,43-3.1c0.2-1.1-0.4-1.3-1.9-0.5c-1.9,0.2-3.8,0.3-5.7,0.4C39.2,33,35.4,33,31.6,33
				c-7.6,0-15.3-0.4-22.9-0.4c-0.5,0-0.5,0.7,0,0.8c14.6,0.1,29.2,1.1,43.7-0.8c0.5-0.1,0.5-0.8,0-0.7c-15,1.4-30.1,1.1-45.1,3.3
				C6.8,35.2,7,35.9,7.5,35.9L7.5,35.9z"/>
		</g>
	</g>
	<g>
		<g>
			<path d="M52.1,2.2c5.7,8.4,15,14.1,23.9,18.6c0.4,0.2,0.8-0.4,0.4-0.6c-8.8-4.5-18-10-23.6-18.4C52.5,1.4,51.8,1.8,52.1,2.2
				L52.1,2.2z"/>
		</g>
	</g>
	<g>
		<g>
			<path d="M77,21.2c-9.4,7.2-20,13.7-26.1,24.1c-0.2,0.4,0.4,0.8,0.6,0.4c6-10.4,16.6-16.8,25.9-23.9C77.7,21.5,77.3,20.9,77,21.2
				L77,21.2z"/>
		</g>
	</g>
	<g>
		<g>
			<path d="M53.3,2.9c3.5,9.6,14.1,12.7,22.2,17.5c0.4,0.2,0.8-0.4,0.4-0.6C68,15.1,57.5,12,54,2.7C53.9,2.2,53.1,2.4,53.3,2.9
				L53.3,2.9z"/>
		</g>
	</g>
	<g>
		<g>
			<path d="M52.4,42.8c6.5-7.6,17-10.9,23.1-18.8c0.3-0.4-0.4-0.8-0.6-0.4c-3.2,4.2-8,6.5-12.1,9.6c-3.8,2.9-7.7,5.4-10.8,9.1
				C51.6,42.6,52.1,43.1,52.4,42.8L52.4,42.8z"/>
		</g>
	</g>
</g>
</svg>
