<?xml version="1.0" encoding="utf-8"?>
<!-- Generator: Adobe Illustrator 20.1.0, SVG Export Plug-In . SVG Version: 6.00 Build 0)  -->
<svg version="1.1" id="Laag_1" xmlns="http://www.w3.org/2000/svg" xmlns:xlink="http://www.w3.org/1999/xlink" x="0px" y="0px"
	 viewBox="0 0 1280 370.7" style="enable-background:new 0 0 1280 370.7;" xml:space="preserve">
<style type="text/css">
	.st0{fill:#1D1D1B;}
	.st1{fill:none;}
	.st2{font-family:'BrandonText-Black';}
	.st3{font-size:64.8608px;}
	.st4{font-size:72.9684px;}
</style>
<g>
	<path class="st0" d="M46.5,120.6H35.9c-2.9,0-4.9-2.4-4.9-4.9v-15c0-2.9,2-4.9,4.9-4.9h10.6V83.7C46.5,56.5,60.9,41,87.8,41
		c13.5,0,25.4,5.7,30.1,9.9c1.8,1.1,2.2,4,1.1,5.7l-7.7,13.5c-1.1,2-4,2.7-6.2,1.3c-3.3-2.2-10.4-5.3-15.9-5.3
		c-12.8,0-15,6.8-15,17.5v12.2H102c2.9,0,4.9,2,4.9,4.9v15c0,2.4-2,4.9-4.9,4.9H74.1v72.5c0,2.6-2.2,4.9-4.9,4.9H51.4
		c-2.7,0-4.9-2.2-4.9-4.9V120.6z"/>
	<path class="st0" d="M157.2,133.4c10.4,0,19.7,2.9,19.7,2.9c0.4-13-3.3-19.2-14.1-19.2c-9.3,0-22.8,2-28.7,3.8
		c-3.3,1.1-5.3-1.3-5.7-4.4l-2.2-11.5c-0.9-3.8,1.1-5.5,3.3-6.2c2.2-0.9,18.3-5.1,34.9-5.1c31.8,0,38.5,16.6,38.5,44.4v55
		c0,2.6-2.2,4.9-4.9,4.9h-7.5c-1.8,0-3.1-0.7-4.4-3.5l-2.9-6.8c-6,5.7-16.1,12.8-32.1,12.8c-20.3,0-34.5-13-34.5-34.9
		C116.6,147.3,131.4,133.4,157.2,133.4z M157.9,179.8c9.1,0,17-7.1,18.3-10.8v-15c0,0-6.8-3.1-15-3.1c-11.7,0-18.1,5.5-18.1,14.6
		C143.1,174.1,148.4,179.8,157.9,179.8z"/>
	<path class="st0" d="M230.2,48.1c0-2.4,2.4-4.9,4.9-4.9h17.9c2.7,0,4.9,2.4,4.9,4.9v50c4.6-2,14.8-4.4,25-4.4
		c30.3,0,49.5,23.4,49.5,53.3c0,29.2-20.1,53.5-48,53.5c-22.3,0-34-15.2-34-15.2l-2.4,8c-1.1,2.9-2.7,4.9-5.1,4.9H235
		c-2.4,0-4.9-2.2-4.9-4.9V48.1z M280.4,175.2c15.9,0,24.1-13.9,24.1-28.3c0-14.4-8.6-28.1-25.4-28.1c-12.8,0-21.2,5.7-21.2,5.7v36.5
		C260,166.8,267.1,175.2,280.4,175.2z"/>
	<path class="st0" d="M351.5,191.1c-1.3-0.9-2.4-3.3-1.3-5.5l6.6-13.3c1.1-2.4,3.5-3.3,6-1.8c4.6,2.9,11.9,6.6,22.5,6.6
		c7.7,0,11.3-2.9,11.3-7.3c0-4.6-5.7-8.8-19.2-14.1c-19.7-7.5-28.5-16.8-28.5-32.3s11.7-29.8,36.7-29.8c15,0,24.8,4,30.3,7.5
		c2.2,1.8,3.5,4.4,2.2,7.1l-5.7,11.7c-1.5,2.4-4.2,2.9-6.4,2c-4.9-2.2-11.9-5.1-20.3-5.1c-6.8,0-9.7,3.3-9.7,6.6
		c0,4.6,5.1,7.1,14.6,11.1c19.7,8,33.8,15,33.8,35.4c0,16.1-13.7,30.5-39.3,30.5C367.9,200.4,357.3,195.1,351.5,191.1z"/>
	<path class="st0" d="M493.9,93.6c15.9,0,28.3,6.8,38,17.2c2.2,2.2,1.1,5.1-1.1,7.3l-9.3,10.2c-2.2,2.4-4.6,1.3-6.6-0.7
		c-4.9-4.6-10.8-8.8-20.3-8.8c-15.9,0-27,12.4-27,28.1c0,15.9,10.8,28.3,26.7,28.3c11.3,0,17.2-6.2,21.7-11.3
		c1.6-1.8,4.6-2.2,6.4-0.7l10,8.4c2.4,2.2,3.5,4.6,1.8,7.3c-8.6,13.5-22.3,21.4-40.4,21.4c-29.8,0-53.9-22.8-53.9-53.5
		C439.7,116.8,463.6,93.6,493.9,93.6z"/>
	<path class="st0" d="M554.7,48.1c0-2.4,2.4-4.9,4.9-4.9h17.9c2.7,0,4.9,2.4,4.9,4.9v54.1c5.1-4.4,13.9-8.6,26.1-8.6
		c32.5,0,41.3,22.5,41.3,48.2v51.3c0,2.6-2.4,4.9-4.9,4.9h-17.9c-2.7,0-4.9-2.2-4.9-4.9v-51.5c0-14.1-6.4-22.8-18.6-22.8
		c-11.9,0-18.6,7.5-21.2,17.9v56.4c0,2.9-1.3,4.9-5.3,4.9h-17.5c-2.4,0-4.9-2.2-4.9-4.9V48.1z"/>
	<path class="st0" d="M722.6,93.6c29,0,52.4,24.3,52.4,53c0,29.2-23.4,53.7-52.4,53.7c-28.7,0-52.2-24.5-52.2-53.7
		C670.5,117.9,693.9,93.6,722.6,93.6z M722.6,175.2c14.8,0,26.7-12.8,26.7-28.5c0-15.5-11.9-27.8-26.7-27.8
		c-14.8,0-26.5,12.4-26.5,27.8C696.1,162.4,707.8,175.2,722.6,175.2z"/>
	<path class="st0" d="M842.9,93.6c29,0,52.4,24.3,52.4,53c0,29.2-23.4,53.7-52.4,53.7c-28.7,0-52.2-24.5-52.2-53.7
		C790.7,117.9,814.1,93.6,842.9,93.6z M842.9,175.2c14.8,0,26.7-12.8,26.7-28.5c0-15.5-11.9-27.8-26.7-27.8
		c-14.8,0-26.5,12.4-26.5,27.8C816.3,162.4,828.1,175.2,842.9,175.2z"/>
	<path class="st0" d="M917.4,48.1c0-2.4,2.4-4.9,4.9-4.9h17.9c2.4,0,4.9,2.4,4.9,4.9v145c0,2.6-2.4,4.9-4.9,4.9h-17.9
		c-2.4,0-4.9-2.2-4.9-4.9V48.1z"/>
	<path class="st0" d="M969.5,60.7c0-9.7,7.5-17.5,17.5-17.5c10,0,17.7,7.7,17.7,17.5s-7.7,17.7-17.7,17.7
		C977,78.4,969.5,70.4,969.5,60.7z M973.5,100.7c0-2.9,2.4-4.9,4.9-4.9h17.9c2.4,0,4.9,2,4.9,4.9v92.4c0,2.6-2.4,4.9-4.9,4.9h-17.9
		c-2.4,0-4.9-2.2-4.9-4.9V100.7z"/>
	<path class="st0" d="M1029.4,100.7c0-2.9,2.4-4.9,4.9-4.9h8.4c2.4,0,3.5,1.1,4.2,3.1l3.8,9.5c3.8-4.2,13.3-14.8,32.9-14.8
		c32.5,0,40.9,21.9,40.9,46.6v52.8c0,2.6-2.4,4.9-4.9,4.9h-17.9c-2.6,0-4.9-2.2-4.9-4.9v-52.8c0-13.3-5.3-21.4-17.7-21.4
		c-13.3,0-19.7,8.8-22.1,15.9v58.4c0,3.8-1.6,4.9-6.4,4.9h-16.4c-2.4,0-4.9-2.2-4.9-4.9V100.7z"/>
	<path class="st0" d="M1197.6,93.6c29,0,52.4,24.3,52.4,53c0,29.2-23.4,53.7-52.4,53.7c-28.7,0-52.2-24.5-52.2-53.7
		C1145.5,117.9,1168.9,93.6,1197.6,93.6z M1197.6,175.2c14.8,0,26.8-12.8,26.8-28.5c0-15.5-11.9-27.8-26.8-27.8
		c-14.8,0-26.5,12.4-26.5,27.8C1171.1,162.4,1182.8,175.2,1197.6,175.2z"/>
</g>
<rect x="313.6" y="281" class="st1" width="713.8" height="59.5"/>
<text transform="matrix(1 0 0 1 313.5889 332.0617)"><tspan x="0" y="0" class="st0 st2 st3">CODE  /  HACK  /  PLAY</tspan><tspan x="694.2" y="0" class="st0 st2 st4"> </tspan></text>
</svg>
